# xmcd
#
# Track frame offsets: 
#        150
#        7580
#        14960
#        23943
#        32868
#        38508
#        47255
#        54305
#        64295
#        70143
#        77608
#
# Disc length: 1167 seconds
#
# Revision: 0
# Processed by: cddbd v1.5.2PL0 Copyright (c) Steve Scherf et al.
# Submitted via: ExactAudioCopy v0.95b3
#
DISCID=7f048d0b
DTITLE=Buck Owens - Down On The Corner Of Love
DYEAR=2006
DGENRE=Country
TTITLE0=Down On The Corner Of Love
TTITLE1=Please Don't Take Her From Me
TTITLE2=It Don't Show On Me
TTITLE3=Why Don't Mommy Stay With Daddy And Me
TTITLE4=Three Dimensional Love
TTITLE5=After The Dance
TTITLE6=You're For Me
TTITLE7=House Down The Block
TTITLE8=Blue Love
TTITLE9=That Ain't Right
TTITLE10=Rhythm And Booze
EXTD=
EXTT0=
EXTT1=
EXTT2=
EXTT3=
EXTT4=
EXTT5=
EXTT6=
EXTT7=
EXTT8=
EXTT9=
EXTT10=
PLAYORDER=
